<svg width="100%" height="100%" viewBox="0 0 16 16" version="1.1" xmlns="http://www.w3.org/2000/svg" xmlns:xlink="http://www.w3.org/1999/xlink">
  <path d="M13.7597226,11.0440134 L13.7780563,11.102067 C13.8186579,11.241576 13.8406897,11.3893731 13.8406897,11.5423109 C13.8406897,11.7739668 13.7904901,11.9938825 13.7032076,12.1852977 L13.6727579,12.2480242 L13.66776,12.2570206 C13.4244497,12.676373 13.020841,12.9914402 12.5303969,13.1213693 L12.4597507,13.1386624 L4.37853372,15.832568 L4.30991208,15.862706 C4.09369265,15.9514271 3.85724549,16 3.6093462,16 C3.37299778,16 3.14691678,15.9557711 2.9472503,15.8781949 L2.86464874,15.8435636 C2.52267002,15.6695166 2.25241303,15.3746053 2.10679663,15.0059148 L2.08096711,14.9359323 L2.06247608,14.8777212 C2.02166467,14.7380025 2,14.5905726 2,14.4376347 C2,14.2059788 2.05019961,13.9860632 2.13748215,13.7946479 L2.16793178,13.7319214 L2.17292975,13.7229251 C2.41576291,13.3026185 2.81934999,12.9870525 3.31022772,12.8579494 L3.38093899,12.8407834 L11.4614063,10.1471277 L11.5307776,10.1167399 C11.7199696,10.0391089 11.9246485,9.99221638 12.1389352,9.98170625 L12.2313435,9.97944585 C12.4676919,9.97944585 12.6937729,10.0236748 12.8934394,10.101251 L12.976041,10.1358823 C13.3180197,10.3099292 13.5882767,10.6048406 13.7338931,10.973531 L13.7597226,11.0440134 Z M12.2313435,4.98847343 C12.4676919,4.98847343 12.6937729,5.03270238 12.8934394,5.11027854 L12.976041,5.14490988 C13.3180197,5.31895682 13.5882767,5.61386815 13.7338931,5.98255859 L13.7597226,6.05254116 L13.7780563,6.11028009 C13.8186579,6.25010375 13.8406897,6.39790085 13.8406897,6.55083872 C13.8406897,6.78249461 13.7904901,7.00241027 13.7032076,7.19382551 L13.6727579,7.25655203 L13.66776,7.26554837 C13.4244497,7.68537782 13.020841,8.00046675 12.5303969,8.13039683 L12.4597507,8.14769 L4.37853372,10.8415956 L4.39002905,10.8365976 C4.1526255,10.9475526 3.88823291,11.0090276 3.6093462,11.0090276 C3.37299778,11.0090276 3.14691678,10.9647986 2.9472503,10.8872225 L2.86464874,10.8525911 C2.52267002,10.6785442 2.25241303,10.3836329 2.10679663,10.0149424 L2.08096711,9.94495986 L2.06247608,9.88674881 C2.02166467,9.74703006 2,9.59960016 2,9.44666229 C2,9.2150064 2.05019961,8.99509074 2.13748215,8.80367551 L2.16793178,8.74094899 L2.17292975,8.73195264 C2.41576291,8.31164612 2.81934999,7.9960801 3.31022772,7.86697703 L3.38093899,7.84981101 L11.462156,5.15540562 L11.5307776,5.12541643 C11.7469971,5.03704629 11.9834442,4.98847343 12.2313435,4.98847343 Z M13.7338931,0.994085162 L13.7597226,1.06456752 L13.7782136,1.12277857 C13.8190251,1.26249731 13.8406897,1.40992722 13.8406897,1.56286509 C13.8406897,1.79452098 13.7904901,2.01443664 13.7032076,2.20585187 L13.6727579,2.26857839 L13.66776,2.27757474 C13.4244497,2.69740418 13.020841,3.01249312 12.5303969,3.14242319 L12.4597507,3.15971637 L4.37853372,5.85362197 L4.31006085,5.88361115 C4.09419244,5.97198129 3.85774529,6.02055415 3.609846,6.02055415 C3.37305331,6.02055415 3.14692295,5.9759303 2.94725098,5.89826638 L2.86464874,5.86361791 C2.52267002,5.68957096 2.25241303,5.39465963 2.10679663,5.02596919 L2.08096711,4.95598663 L2.06247608,4.89777558 C2.02166467,4.75805684 2,4.61062693 2,4.45768906 C2,4.22603317 2.05019961,4.00611751 2.13748215,3.81470228 L2.16793178,3.75197576 L2.17292975,3.74297941 C2.41576291,3.32314997 2.81934999,3.00760564 3.31022772,2.87850355 L3.38093899,2.86133758 L11.462156,0.167431981 L11.4506607,0.17242995 C11.6880642,0.0614750258 11.9524568,0 12.2313435,0 C12.4676919,0 12.6937729,0.0442289456 12.8934394,0.121805112 L12.976041,0.156436448 C13.3180197,0.330483388 13.5882767,0.625394722 13.7338931,0.994085162 L13.7338931,0.994085162 Z" style="fill:#242424;"/>
</svg>